<svg id="Layer_1" data-name="Layer 1" xmlns="http://www.w3.org/2000/svg" xmlns:xlink="http://www.w3.org/1999/xlink" viewBox="0 0 800 300"><defs><style>.cls-1{fill:url(#New_Gradient_Swatch_2);}.cls-2{fill:#fff;}</style><linearGradient id="New_Gradient_Swatch_2" x1="13.16" y1="37.74" x2="13.16" gradientUnits="userSpaceOnUse"><stop offset="0" stop-color="#00c244"/><stop offset="1" stop-color="#00d64b"/></linearGradient><symbol id="RGB_Small_Dollar" data-name="RGB Small Dollar" viewBox="0 0 26.33 37.74"><path class="cls-1" d="M14.63,9a11.75,11.75,0,0,1,7.58,2.82,1.16,1.16,0,0,0,1.6,0L26,9.6a1.13,1.13,0,0,0,0-1.66,17.2,17.2,0,0,0-5.86-3.29l.69-3.27A1.15,1.15,0,0,0,19.65,0H15.42A1.15,1.15,0,0,0,14.3.91l-.61,2.9C8.07,4.09,3.31,6.89,3.31,12.64c0,5,3.94,7.11,8.1,8.58,3.93,1.48,6,2,6,4.11s-2.08,3.39-5.14,3.39a11.28,11.28,0,0,1-8-3.16,1.13,1.13,0,0,0-1.6,0L.34,27.87a1.16,1.16,0,0,0,0,1.65A15.59,15.59,0,0,0,7.14,33.3l-.64,3a1.18,1.18,0,0,0,1.11,1.42h4.23A1.15,1.15,0,0,0,13,36.83l.61-2.91c6.72-.41,10.84-4.07,10.84-9.41,0-4.93-4.1-7-9.08-8.7-2.84-1-5.3-1.75-5.3-3.88S12.34,9,14.63,9Z"/></symbol></defs><title>Cash App - Dollar - Secondary - Dark</title><rect width="800" height="300"/><path class="cls-2" d="M326,138.2a1.59,1.59,0,0,1-2.12-.41,12.36,12.36,0,0,0-10.5-5.29c-8,0-12.92,6.33-12.92,15.37s5,15.49,13,15.49A12.24,12.24,0,0,0,324,157.83a1.6,1.6,0,0,1,2.11-.47l3.79,2.2a1.61,1.61,0,0,1,.5,2.33,19.79,19.79,0,0,1-17,8.79c-12.79,0-21.46-9.28-21.46-22.81s8.67-22.69,21.27-22.69a20.15,20.15,0,0,1,16.92,8.38,1.62,1.62,0,0,1-.44,2.33Z"/><path class="cls-2" d="M353.92,168.28v-1.84c-2,2.58-4.8,4.18-9.29,4.18-6.64,0-11.25-3.63-11.25-10,0-7.94,7.07-9.29,11.44-9.9,4.67-.68,8.67-1,8.67-4.06,0-2.71-3.14-3.44-5.79-3.44a19.63,19.63,0,0,0-8.72,2.21,1.59,1.59,0,0,1-2.19-.69l-1.4-2.84a1.6,1.6,0,0,1,.66-2.12,26.07,26.07,0,0,1,12.27-3.08c7.62,0,13,3.13,13,10.7v20.9a1.6,1.6,0,0,1-1.6,1.6h-4.17A1.6,1.6,0,0,1,353.92,168.28Zm-.43-14.45c-1.48,1.11-4.19,1.48-7.07,2s-5.29,1.29-5.29,4.43c0,2.89,2.09,4.24,5.1,4.24,3.75,0,7.26-2.09,7.26-6.95Z"/><path class="cls-2" d="M368.23,161.6a1.6,1.6,0,0,1,2.22-.21,14.83,14.83,0,0,0,9.29,3c3.45,0,6-1.11,6-3.81,0-2.46-2.34-2.95-8-3.94-6-1-11.75-3-11.75-9.84,0-7.13,6.15-10.14,13.16-10.14a19.72,19.72,0,0,1,12.2,4,1.6,1.6,0,0,1,.21,2.31l-2,2.35a1.61,1.61,0,0,1-2.2.25,14.09,14.09,0,0,0-8.5-2.72c-2.95,0-5.53.86-5.53,3.19,0,2.59,3.63,3.08,7.26,3.69,7.74,1.36,12.66,3.57,12.66,10,0,6.77-5.41,11-14,11a20.14,20.14,0,0,1-13-4.25,1.61,1.61,0,0,1-.21-2.29Z"/><path class="cls-2" d="M398,168.28v-40.7a1.6,1.6,0,0,1,1.6-1.6h4.61a1.6,1.6,0,0,1,1.6,1.6v13.89a11.94,11.94,0,0,1,9.9-4.79c6.83,0,10.82,4.86,10.82,11.8v19.8a1.6,1.6,0,0,1-1.6,1.6h-4.61a1.6,1.6,0,0,1-1.6-1.6v-18c0-3.45-1.1-6.58-5.53-6.58-4.18,0-7.38,2.95-7.38,7.87v16.72a1.6,1.6,0,0,1-1.6,1.6h-4.61A1.6,1.6,0,0,1,398,168.28Z"/><path class="cls-2" d="M463.07,168.79,459.75,159H443l-3.32,9.79a1.6,1.6,0,0,1-1.52,1.09h-5.4a1.6,1.6,0,0,1-1.5-2.16l15.1-40.7a1.6,1.6,0,0,1,1.5-1h7.43a1.6,1.6,0,0,1,1.5,1l15.05,40.71a1.6,1.6,0,0,1-1.5,2.15h-5.72A1.6,1.6,0,0,1,463.07,168.79Zm-11.62-35.68L445,152.17h12.66Z"/><path class="cls-2" d="M484.27,139v2.52a11.72,11.72,0,0,1,10-4.86c8.86,0,14.58,7.31,14.58,16.91s-5.72,17-14.58,17a11.73,11.73,0,0,1-10-4.92V179a1.6,1.6,0,0,1-1.6,1.6h-4.61a1.6,1.6,0,0,1-1.6-1.6V139a1.6,1.6,0,0,1,1.6-1.6h4.61A1.6,1.6,0,0,1,484.27,139Zm8.36,24.77c5.41,0,8.06-4.61,8.06-10.2S498,143.5,492.63,143.5s-8.36,4.49-8.36,10.09S487.16,163.79,492.63,163.79Z"/><path class="cls-2" d="M521.47,139v2.52a11.75,11.75,0,0,1,10-4.86c8.85,0,14.57,7.31,14.57,16.91s-5.72,17-14.57,17a11.76,11.76,0,0,1-10-4.92V179a1.6,1.6,0,0,1-1.6,1.6h-4.6a1.6,1.6,0,0,1-1.6-1.6V139a1.59,1.59,0,0,1,1.6-1.6h4.6A1.59,1.59,0,0,1,521.47,139Zm8.37,24.77c5.41,0,8-4.61,8-10.2s-2.64-10.09-8-10.09-8.37,4.49-8.37,10.09S524.36,163.79,529.84,163.79Z"/><use id="RGB_Small_Dollar-3" data-name="RGB Small Dollar" width="26.33" height="37.74" transform="translate(253.93 119.42)" xlink:href="#RGB_Small_Dollar"/></svg>