<svg id="Layer_1" data-name="Layer 1" xmlns="http://www.w3.org/2000/svg" xmlns:xlink="http://www.w3.org/1999/xlink" viewBox="0 0 800 300"><defs><style>.cls-1{fill:url(#linear-gradient);}</style><linearGradient id="linear-gradient" x1="286.27" y1="150" x2="513.73" y2="150" gradientUnits="userSpaceOnUse"><stop offset="0" stop-color="#00c244"/><stop offset="0.6" stop-color="#00d64b"/></linearGradient></defs><title>Cash App - Dollar - Race</title><path class="cls-1" d="M416.63,106.8H388.52a3.12,3.12,0,0,0-3.06,2.46l-17.18,80.19a3.11,3.11,0,0,0,3.06,3.75h28.22a3.1,3.1,0,0,0,3.05-2.46l17.08-80.2A3.11,3.11,0,0,0,416.63,106.8Zm-44.87,0H353.4a3.11,3.11,0,0,0-3,2.46l-17.18,80.19a3.1,3.1,0,0,0,3.05,3.75h18.47a3.11,3.11,0,0,0,3.05-2.46l17.08-80.2A3.11,3.11,0,0,0,371.76,106.8Zm-35.12,0H328a3.12,3.12,0,0,0-3.06,2.46L307.8,189.45a3.11,3.11,0,0,0,3.06,3.75h8.71a3.1,3.1,0,0,0,3.05-2.46l17.08-80.2A3.11,3.11,0,0,0,336.64,106.8Zm-27.31,0h-2.76a3.11,3.11,0,0,0-3.05,2.46l-17.18,80.19a3.11,3.11,0,0,0,3.05,3.75h2.87a3.11,3.11,0,0,0,3.05-2.46l17.07-80.2A3.1,3.1,0,0,0,309.33,106.8Zm201.28,0H435.66a3.11,3.11,0,0,0-3.05,2.46l-17.18,80.19a3.11,3.11,0,0,0,3.05,3.75h75a3.12,3.12,0,0,0,3.06-2.46l17.07-80.2A3.1,3.1,0,0,0,510.61,106.8ZM484.12,136l-3.34,3.35a1.77,1.77,0,0,1-2.43,0,18,18,0,0,0-11.57-4.26c-3.5,0-7,1.24-7,4.38s3.75,4.3,8.09,5.87c7.59,2.56,13.84,5.7,13.84,13.14,0,8.08-6.27,13.6-16.53,14.23l-.93,4.39a1.75,1.75,0,0,1-1.72,1.38h-6.45a1.78,1.78,0,0,1-1.7-2.14l1-4.57A23.71,23.71,0,0,1,445,166.09a1.73,1.73,0,0,1,0-2.49l3.58-3.5a1.74,1.74,0,0,1,2.44,0,17.24,17.24,0,0,0,12.19,4.77c4.67,0,7.84-1.9,7.84-5.12s-3.17-4-9.18-6.2c-6.34-2.23-12.34-5.46-12.34-13,0-8.69,7.26-12.93,15.82-13.35l.94-4.39a1.75,1.75,0,0,1,1.71-1.37h6.44a1.74,1.74,0,0,1,1.71,2.09l-1,4.93a26.48,26.48,0,0,1,8.93,5A1.71,1.71,0,0,1,484.12,136Z"/></svg>