<svg id="Layer_1" data-name="Layer 1" xmlns="http://www.w3.org/2000/svg" xmlns:xlink="http://www.w3.org/1999/xlink" viewBox="0 0 800 300"><defs><style>.cls-1{fill-rule:evenodd;fill:url(#New_Gradient_Swatch_2);}.cls-2{fill:#fff;}</style><linearGradient id="New_Gradient_Swatch_2" x1="43.2" y1="86.4" x2="43.2" gradientUnits="userSpaceOnUse"><stop offset="0" stop-color="#00c244"/><stop offset="1" stop-color="#00d64b"/></linearGradient><symbol id="RGB_Dollar" data-name="RGB Dollar" viewBox="0 0 86.4 86.4"><path class="cls-1" d="M56.28,0C65,0,69.29,0,74,1.48a18.34,18.34,0,0,1,11,11c1.48,4.67,1.48,9,1.48,17.68V56.28c0,8.67,0,13-1.48,17.68a18.34,18.34,0,0,1-11,11c-4.67,1.48-9,1.48-17.68,1.48H30.12c-8.67,0-13,0-17.68-1.48a18.34,18.34,0,0,1-11-11C0,69.29,0,65,0,56.28V30.12c0-8.67,0-13,1.48-17.68a18.34,18.34,0,0,1,11-11C17.11,0,21.45,0,30.12,0Z"/><path class="cls-2" d="M45.4,28.33A18,18,0,0,1,57,32.59a1.77,1.77,0,0,0,2.43-.05l3.34-3.35a1.71,1.71,0,0,0-.09-2.51,26.48,26.48,0,0,0-8.93-5l1-4.93a1.74,1.74,0,0,0-1.71-2.09H46.61a1.75,1.75,0,0,0-1.71,1.37L44,20.44c-8.56.42-15.82,4.66-15.82,13.35,0,7.51,6,10.74,12.34,13,6,2.23,9.18,3.06,9.18,6.2s-3.17,5.12-7.84,5.12a17.26,17.26,0,0,1-12.19-4.77,1.74,1.74,0,0,0-2.44,0l-3.58,3.5a1.73,1.73,0,0,0,0,2.49A23.71,23.71,0,0,0,34,65l-1,4.57a1.78,1.78,0,0,0,1.7,2.14h6.45a1.75,1.75,0,0,0,1.72-1.38L43.8,66c10.26-.63,16.53-6.15,16.53-14.23,0-7.44-6.25-10.58-13.84-13.14C42.15,37,38.4,35.93,38.4,32.71S41.9,28.33,45.4,28.33Z"/></symbol></defs><title>Cash App - Dollar - Full - Dark</title><rect width="800" height="300"/><path class="cls-2" d="M361.53,140.27a1.61,1.61,0,0,1-2.13-.42,12.36,12.36,0,0,0-10.5-5.29c-8,0-12.91,6.33-12.91,15.37s5,15.49,13,15.49a12.22,12.22,0,0,0,10.52-5.53,1.59,1.59,0,0,1,2.1-.47l3.8,2.2A1.62,1.62,0,0,1,366,164a19.77,19.77,0,0,1-17,8.79c-12.79,0-21.46-9.28-21.46-22.81s8.67-22.69,21.27-22.69a20.15,20.15,0,0,1,16.92,8.38,1.63,1.63,0,0,1-.44,2.34Z"/><path class="cls-2" d="M389.49,170.34V168.5c-2,2.58-4.79,4.18-9.28,4.18-6.64,0-11.25-3.63-11.25-10,0-7.93,7.07-9.29,11.43-9.9,4.68-.68,8.67-1,8.67-4.06,0-2.71-3.13-3.44-5.78-3.44a19.64,19.64,0,0,0-8.73,2.21,1.58,1.58,0,0,1-2.18-.69L371,143.94a1.61,1.61,0,0,1,.66-2.12,26.26,26.26,0,0,1,12.28-3.08c7.62,0,13,3.13,13,10.7v20.9a1.6,1.6,0,0,1-1.6,1.6h-4.18A1.6,1.6,0,0,1,389.49,170.34Zm-.43-14.45c-1.47,1.11-4.18,1.48-7.07,2s-5.29,1.29-5.29,4.43c0,2.89,2.09,4.24,5.11,4.24,3.75,0,7.25-2.09,7.25-6.95Z"/><path class="cls-2" d="M403.81,163.66a1.6,1.6,0,0,1,2.21-.21,14.87,14.87,0,0,0,9.3,3c3.45,0,6-1.11,6-3.81,0-2.46-2.34-2.95-8-3.94-6-1-11.74-3-11.74-9.84,0-7.13,6.15-10.14,13.16-10.14a19.69,19.69,0,0,1,12.19,4,1.6,1.6,0,0,1,.22,2.31l-2,2.35a1.61,1.61,0,0,1-2.2.25,14.11,14.11,0,0,0-8.5-2.72c-2.95,0-5.53.86-5.53,3.19,0,2.59,3.62,3.08,7.25,3.7,7.75,1.35,12.67,3.56,12.67,10,0,6.76-5.41,10.94-14,10.94a20.17,20.17,0,0,1-13-4.24,1.62,1.62,0,0,1-.21-2.3Z"/><path class="cls-2" d="M433.59,170.34v-40.7a1.6,1.6,0,0,1,1.6-1.6h4.61a1.6,1.6,0,0,1,1.6,1.6v13.9a12,12,0,0,1,9.9-4.8c6.82,0,10.82,4.86,10.82,11.8v19.8a1.6,1.6,0,0,1-1.6,1.6h-4.61a1.6,1.6,0,0,1-1.6-1.6v-18c0-3.45-1.11-6.58-5.53-6.58-4.19,0-7.38,2.95-7.38,7.87v16.72a1.6,1.6,0,0,1-1.6,1.6h-4.61A1.59,1.59,0,0,1,433.59,170.34Z"/><path class="cls-2" d="M512.85,170.86l-3.32-9.8H492.75l-3.33,9.8a1.59,1.59,0,0,1-1.51,1.08H482.5a1.6,1.6,0,0,1-1.5-2.15l15.11-40.71a1.6,1.6,0,0,1,1.5-1H505a1.62,1.62,0,0,1,1.51,1.05l15.05,40.7a1.6,1.6,0,0,1-1.51,2.15h-5.71A1.6,1.6,0,0,1,512.85,170.86Zm-11.62-35.69-6.46,19.06h12.67Z"/><path class="cls-2" d="M533.15,141.08v2.52a11.75,11.75,0,0,1,10-4.86c8.85,0,14.57,7.32,14.57,16.91s-5.72,17-14.57,17a11.73,11.73,0,0,1-10-4.92V181a1.6,1.6,0,0,1-1.6,1.6h-4.61a1.6,1.6,0,0,1-1.6-1.6v-40a1.6,1.6,0,0,1,1.6-1.6h4.61A1.6,1.6,0,0,1,533.15,141.08Zm8.36,24.78c5.41,0,8-4.62,8-10.21s-2.64-10.09-8-10.09-8.36,4.49-8.36,10.09S536,165.86,541.51,165.86Z"/><path class="cls-2" d="M570.35,141.08v2.52a11.77,11.77,0,0,1,10-4.86c8.86,0,14.58,7.32,14.58,16.91s-5.72,17-14.58,17a11.75,11.75,0,0,1-10-4.92V181a1.6,1.6,0,0,1-1.6,1.6h-4.61a1.6,1.6,0,0,1-1.6-1.6v-40a1.6,1.6,0,0,1,1.6-1.6h4.61A1.59,1.59,0,0,1,570.35,141.08Zm8.37,24.78c5.41,0,8-4.62,8-10.21s-2.64-10.09-8-10.09-8.37,4.49-8.37,10.09S573.24,165.86,578.72,165.86Z"/><use width="86.4" height="86.4" transform="translate(205.05 106.8)" xlink:href="#RGB_Dollar"/></svg>